<svg version="1.1" id="Capa_1" xmlns="http://www.w3.org/2000/svg" xmlns:xlink="http://www.w3.org/1999/xlink" x="0px" y="0px" viewBox="0 0 510 510" style="enable-background:new 0 0 510 510;" xml:space="preserve">
<g>
	<g>
		<g>
			<path style="fill:#FFFFFF;" d="M453.464,10.131H56.536C30.835,10.131,10,30.966,10,56.667v300.529&#10;&#9;&#9;&#9;&#9;c0,25.701,20.835,46.536,46.536,46.536h87.649v96.137l105.678-96.137h203.6c25.701,0,46.536-20.835,46.536-46.536V56.667&#10;&#9;&#9;&#9;&#9;C500,30.966,479.165,10.131,453.464,10.131z"/>
		</g>
		<path style="fill:#D2DCFD;" d="M127.091,112.782c0-35.509,4.695-69.921,13.494-102.651H56.536C30.835,10.131,10,30.966,10,56.667&#10;&#9;&#9;&#9;v300.529c0,25.701,20.835,46.536,46.536,46.536h87.649v96.136l105.678-96.136h5.347&#10;&#9;&#9;&#9;C176.47,331.62,127.091,227.969,127.091,112.782z"/>
		<path style="fill:#FD8F01;" d="M188.866,87.435c0,0,7.28,61.655-47.932,94.504c0,0-10.734-23.859-9.983-38.968&#10;&#9;&#9;&#9;c-81.646,59.286-34.837,175.895,53.354,174.435c64.064,0,96.196-52.715,96.196-93.511&#10;&#9;&#9;&#9;C280.5,150.426,240.42,106.597,188.866,87.435z"/>
		<path style="fill:#FD6050;" d="M184.265,317.405c-31.038-51.045-50.821-109.689-55.884-172.493&#10;&#9;&#9;&#9;C50.348,204.751,97.048,318.814,184.265,317.405z"/>
	</g>
	<g>
		<path style="fill:none;stroke:#052A75;stroke-width:20;stroke-linecap:round;stroke-linejoin:round;stroke-miterlimit:10;" d="&#10;&#9;&#9;&#9;M188.866,87.435c0,0,7.28,61.655-47.932,94.504c0,0-10.734-23.859-9.983-38.968c-81.646,59.286-34.837,175.895,53.354,174.435&#10;&#9;&#9;&#9;c64.064,0,96.196-52.715,96.196-93.511C280.5,150.426,240.42,106.597,188.866,87.435z"/>
		<g>
			<path style="fill:none;stroke:#052A75;stroke-width:20;stroke-linecap:round;stroke-linejoin:round;stroke-miterlimit:10;" d="&#10;&#9;&#9;&#9;&#9;M453.464,10.131H56.536C30.835,10.131,10,30.966,10,56.667v300.529c0,25.701,20.835,46.536,46.536,46.536h87.649v96.137&#10;&#9;&#9;&#9;&#9;l105.678-96.137h203.6c25.701,0,46.536-20.835,46.536-46.536V56.667C500,30.966,479.165,10.131,453.464,10.131z"/>
		</g>
		
			<polyline style="fill:none;stroke:#052A75;stroke-width:20;stroke-linecap:round;stroke-linejoin:round;stroke-miterlimit:10;" points="&#10;&#9;&#9;&#9;350.707,105.885 398.801,105.885 398.801,298.968 &#9;&#9;"/>
	</g>
</g>
<g>
</g>
<g>
</g>
<g>
</g>
<g>
</g>
<g>
</g>
<g>
</g>
<g>
</g>
<g>
</g>
<g>
</g>
<g>
</g>
<g>
</g>
<g>
</g>
<g>
</g>
<g>
</g>
<g>
</g>
</svg>