<svg version="1.1" id="Capa_1" xmlns="http://www.w3.org/2000/svg" xmlns:xlink="http://www.w3.org/1999/xlink" x="0px" y="0px" viewBox="0 0 510 510" style="enable-background:new 0 0 510 510;" xml:space="preserve">
<g>
	<g>
		<path style="fill:#FD7DA0;" d="M254.802,10.092c-36.339,0-67.38,22.647-79.761,54.581C162.66,32.739,131.62,10.092,95.28,10.092&#10;&#9;&#9;&#9;c-49.572-0.132-85.266,42.13-85.266,91.87H10c0,49.469,27.699,93.129,60.547,127.512l-43.052,56.861h111.13&#10;&#9;&#9;&#9;c13.543,9.221,24.847,15.932,31.648,19.772l125.315-94.258c25.061-31.871,44.722-71.696,44.722-116.34&#10;&#9;&#9;&#9;C340.31,48.335,302.027,10.092,254.802,10.092z"/>
		<path style="fill:#DB4B86;" d="M295.589,211.85c12.105-15.395,22.942-32.65,30.92-51.403&#10;&#9;&#9;&#9;c-21.762-12.316-46.231-18.782-71.535-18.783l-0.235-0.001c-40.77,0-78.297,16.757-105.669,47.183&#10;&#9;&#9;&#9;c-23.829,26.488-37.599,60.875-39.2,97.49h28.755c13.543,9.221,24.847,15.932,31.648,19.772L295.589,211.85z"/>
		<path style="fill:#FDCB50;" d="M453.466,405.633C479.77,373.184,500,333.214,500,287.082c0-47.175-38.284-85.418-85.508-85.418&#10;&#9;&#9;&#9;c-36.339,0-67.38,22.647-79.761,54.581c-12.381-31.934-43.422-54.581-79.761-54.581c-49.571-0.132-85.267,42.13-85.267,91.87&#10;&#9;&#9;&#9;h-0.014c0,121.861,165.099,206.373,165.099,206.373c0.559-0.084,24.006-11.616,53.068-32.937h112.052L453.466,405.633z"/>
	</g>
	<g>
		<path style="fill:none;stroke:#052A75;stroke-width:20;stroke-linecap:round;stroke-linejoin:round;stroke-miterlimit:10;" d="&#10;&#9;&#9;&#9;M295.589,211.85c25.061-31.871,44.722-71.696,44.722-116.34c0-47.175-38.283-85.418-85.508-85.418&#10;&#9;&#9;&#9;c-36.339,0-67.38,22.647-79.761,54.581C162.66,32.739,131.62,10.092,95.28,10.092c-49.571-0.132-85.266,42.13-85.266,91.87H10&#10;&#9;&#9;&#9;c0,49.468,27.699,93.129,60.547,127.512l-43.052,56.861h111.129c13.544,9.221,24.847,15.932,31.649,19.772"/>
		
			<line style="fill:none;stroke:#052A75;stroke-width:20;stroke-linecap:round;stroke-linejoin:round;stroke-miterlimit:10;" x1="254.418" y1="320.741" x2="415.856" y2="320.741"/>
		
			<line style="fill:none;stroke:#052A75;stroke-width:20;stroke-linecap:round;stroke-linejoin:round;stroke-miterlimit:10;" x1="278.662" y1="376.343" x2="391.612" y2="376.343"/>
		<path style="fill:none;stroke:#052A75;stroke-width:20;stroke-linecap:round;stroke-linejoin:round;stroke-miterlimit:10;" d="&#10;&#9;&#9;&#9;M453.466,405.633C479.77,373.184,500,333.214,500,287.082c0-47.175-38.284-85.418-85.508-85.418&#10;&#9;&#9;&#9;c-36.339,0-67.38,22.647-79.761,54.581c-12.381-31.934-43.422-54.581-79.761-54.581c-49.571-0.132-85.267,42.13-85.267,91.87&#10;&#9;&#9;&#9;h-0.014c0,121.861,165.099,206.373,165.099,206.373c0.559-0.084,24.006-11.616,53.068-32.937h112.052L453.466,405.633z"/>
	</g>
</g>
<g>
</g>
<g>
</g>
<g>
</g>
<g>
</g>
<g>
</g>
<g>
</g>
<g>
</g>
<g>
</g>
<g>
</g>
<g>
</g>
<g>
</g>
<g>
</g>
<g>
</g>
<g>
</g>
<g>
</g>
</svg>