<svg version="1.1" id="Capa_1" xmlns="http://www.w3.org/2000/svg" xmlns:xlink="http://www.w3.org/1999/xlink" x="0px" y="0px" viewBox="0 0 510 510" style="enable-background:new 0 0 510 510;" xml:space="preserve">
<g>
	<g>
		<path style="fill:#DB4B86;" d="M498.266,107.46C487.511,51.854,440.656,10,384.483,10c48.376,57.862,4.119,96.628,4.119,96.628&#10;&#9;&#9;&#9;l84.193,89.223C492.948,170.426,504.595,140.186,498.266,107.46z"/>
		<path style="fill:#BC3C85;" d="M125.522,10C69.35,10,22.494,51.854,11.74,107.46c-6.236,32.245,4.892,62.543,24.886,87.618&#10;&#9;&#9;&#9;l85.17-88.034C121.796,107.044,77.146,67.862,125.522,10z"/>
		<g>
			<path style="fill:#BC9AF4;" d="M473.379,218.591c0-62.377-50.62-112.943-113.063-112.943c-48.05,0-89.093,29.945-105.464,72.169&#10;&#9;&#9;&#9;&#9;c-16.371-42.225-57.414-72.169-105.464-72.169c-65.546-0.175-112.744,55.707-112.744,121.476h-0.018&#10;&#9;&#9;&#9;&#9;C36.626,388.253,254.928,500,254.928,500C256.897,499.706,473.379,392.116,473.379,218.591z"/>
		</g>
		<path style="fill:#6864F7;" d="M121.578,109.115c-50.674,13.13-84.934,61.976-84.934,118.008h-0.018&#10;&#9;&#9;&#9;C36.626,388.253,254.928,500,254.928,500c0.912-0.136,47.826-23.285,97.941-65.332&#10;&#9;&#9;&#9;C225.551,377.386,134.117,254.53,121.578,109.115z"/>
	</g>
	<g>
		<path style="fill:none;stroke:#052A75;stroke-width:20;stroke-linecap:round;stroke-linejoin:round;stroke-miterlimit:10;" d="&#10;&#9;&#9;&#9;M121.796,107.044c0,0-44.65-39.182,3.726-97.044C69.35,10,22.494,51.854,11.74,107.46c-6.236,32.245,4.892,62.543,24.886,87.618"/>
		<path style="fill:none;stroke:#052A75;stroke-width:20;stroke-linecap:round;stroke-linejoin:round;stroke-miterlimit:10;" d="&#10;&#9;&#9;&#9;M388.602,106.628c0,0,44.257-38.766-4.119-96.628c56.173,0,103.028,41.854,113.783,97.46c6.329,32.726-5.318,62.966-25.47,88.391"/>
		<g>
			<path style="fill:none;stroke:#052A75;stroke-width:20;stroke-linecap:round;stroke-linejoin:round;stroke-miterlimit:10;" d="&#10;&#9;&#9;&#9;&#9;M473.379,218.591c0-62.377-50.62-112.943-113.063-112.943c-48.05,0-89.093,29.945-105.464,72.169&#10;&#9;&#9;&#9;&#9;c-16.371-42.225-57.414-72.169-105.464-72.169c-65.546-0.175-112.744,55.707-112.744,121.476h-0.018&#10;&#9;&#9;&#9;&#9;C36.626,388.253,254.928,500,254.928,500C256.897,499.706,473.379,392.116,473.379,218.591z"/>
		</g>
	</g>
</g>
<g>
</g>
<g>
</g>
<g>
</g>
<g>
</g>
<g>
</g>
<g>
</g>
<g>
</g>
<g>
</g>
<g>
</g>
<g>
</g>
<g>
</g>
<g>
</g>
<g>
</g>
<g>
</g>
<g>
</g>
</svg>