<svg version="1.1" id="Capa_1" xmlns="http://www.w3.org/2000/svg" xmlns:xlink="http://www.w3.org/1999/xlink" x="0px" y="0px" viewBox="0 0 510 510" style="enable-background:new 0 0 510 510;" xml:space="preserve">
<g>
	<g>
		<path style="fill:#FD8F01;" d="M262.42,10c0,0,13.665,115.736-89.976,177.398c0,0-20.15-44.787-18.741-73.149&#10;&#9;&#9;&#9;C40.082,196.753,61.636,338.265,146.469,404.9l209.441,9.025c54.292-34.863,78.522-96.342,78.522-147.771&#10;&#9;&#9;&#9;C434.431,128.245,359.194,45.97,262.42,10z"/>
		<path style="fill:#FD6050;" d="M152.102,202.4c0-19.264,2.063-38.044,5.946-56.149c-2.836-10.969-4.821-22.422-4.345-32.002&#10;&#9;&#9;&#9;C40.082,196.753,61.636,338.265,146.469,404.9l104.312,4.495C190.583,360.54,152.102,285.97,152.102,202.4z"/>
		<path style="fill:#FD7DA0;" d="M382.052,335.459c0-36.472-29.598-66.039-66.108-66.039c-28.095,0-52.093,17.509-61.665,42.198&#10;&#9;&#9;&#9;c-9.572-24.689-33.57-42.198-61.665-42.198c-38.325-0.102-65.922,32.572-65.922,71.027h-0.011&#10;&#9;&#9;&#9;C126.681,434.661,254.323,500,254.323,500C255.474,499.828,382.052,436.92,382.052,335.459z"/>
		<path style="fill:#DB4B86;" d="M162.648,276.818c-21.93,11.761-35.956,36.221-35.956,63.629h-0.011&#10;&#9;&#9;&#9;C126.681,434.661,254.323,500,254.323,500c0.605-0.09,35.781-17.482,69.062-48.658&#10;&#9;&#9;&#9;C245.999,421.735,185.952,357.097,162.648,276.818z"/>
	</g>
	<g>
		<path style="fill:none;stroke:#052A75;stroke-width:20;stroke-linecap:round;stroke-linejoin:round;stroke-miterlimit:10;" d="&#10;&#9;&#9;&#9;M355.909,413.925c54.292-34.863,78.522-96.342,78.522-147.771c0-137.91-75.237-220.185-172.011-256.155&#10;&#9;&#9;&#9;c0,0,13.665,115.736-89.976,177.398c0,0-20.15-44.787-18.741-73.149C40.082,196.753,61.636,338.265,146.469,404.9"/>
		<g>
			<path style="fill:none;stroke:#052A75;stroke-width:20;stroke-linecap:round;stroke-linejoin:round;stroke-miterlimit:10;" d="&#10;&#9;&#9;&#9;&#9;M382.052,335.459c0-36.472-29.598-66.039-66.108-66.039c-28.095,0-52.093,17.509-61.665,42.198&#10;&#9;&#9;&#9;&#9;c-9.572-24.689-33.57-42.198-61.665-42.198c-38.325-0.102-65.922,32.572-65.922,71.027h-0.011&#10;&#9;&#9;&#9;&#9;C126.681,434.661,254.323,500,254.323,500C255.474,499.828,382.052,436.92,382.052,335.459z"/>
		</g>
	</g>
</g>
<g>
</g>
<g>
</g>
<g>
</g>
<g>
</g>
<g>
</g>
<g>
</g>
<g>
</g>
<g>
</g>
<g>
</g>
<g>
</g>
<g>
</g>
<g>
</g>
<g>
</g>
<g>
</g>
<g>
</g>
</svg>