<svg version="1.1" id="Capa_1" xmlns="http://www.w3.org/2000/svg" xmlns:xlink="http://www.w3.org/1999/xlink" x="0px" y="0px" viewBox="0 0 510 510" style="enable-background:new 0 0 510 510;" xml:space="preserve">
<g>
	<g>
		<path style="fill:#FD7DA0;" d="M256.83,475.977c0,0-0.674-0.346-1.936-1.017c-1.262,0.671-1.936,1.017-1.936,1.017H256.83z"/>
		<path style="fill:#FD7DA0;" d="M497.873,169.832h-0.02c0-73.787-52.952-136.481-126.489-136.285&#10;&#9;&#9;&#9;c-51.629,0-96.048,30.815-115.846,75.035h-1.25c-19.798-44.22-64.217-75.035-115.845-75.035&#10;&#9;&#9;&#9;C64.886,33.35,11.934,96.044,11.934,169.832h-0.02c0,171.35,220.037,292.918,242.98,305.128&#10;&#9;&#9;&#9;C277.836,462.75,497.873,341.182,497.873,169.832z"/>
		<path style="fill:#DB4B86;" d="M376.979,170.429c-100.914,0-183.013,82.099-183.013,183.012&#10;&#9;&#9;&#9;c0,39.418,12.526,75.965,33.807,105.869c13.439,8.236,23.182,13.553,27.12,15.649c20.997-11.174,207.071-113.946,238.482-262.644&#10;&#9;&#9;&#9;C461.721,186.161,421.153,170.429,376.979,170.429z"/>
		
			<ellipse transform="matrix(0.7071 -0.7071 0.7071 0.7071 -139.5062 370.0853)" style="fill:#B1D952;" cx="376.979" cy="353.442" rx="123.013" ry="123.013"/>
	</g>
	<g>
		<path style="fill:none;stroke:#052A75;stroke-width:20;stroke-linecap:round;stroke-linejoin:round;stroke-miterlimit:10;" d="&#10;&#9;&#9;&#9;M471.294,274.464C488.216,240.298,500,200.647,500,160.259c0-69.982-56.792-126.713-126.847-126.713&#10;&#9;&#9;&#9;c-53.908,0-99.955,33.595-118.322,80.968c-18.367-47.373-64.414-80.968-118.322-80.968C62.972,33.35,10.02,96.044,10.02,169.832&#10;&#9;&#9;&#9;H10c0,180.774,244.916,306.145,244.916,306.145c0.685-0.102,12.456-4.762,45.019-26.641"/>
		
			<ellipse transform="matrix(0.7071 -0.7071 0.7071 0.7071 -139.5062 370.0853)" style="fill:none;stroke:#052A75;stroke-width:20;stroke-linecap:round;stroke-linejoin:round;stroke-miterlimit:10;" cx="376.979" cy="353.442" rx="123.013" ry="123.013"/>
		
			<polyline style="fill:none;stroke:#FFFFFF;stroke-width:20;stroke-linecap:round;stroke-linejoin:round;stroke-miterlimit:10;" points="&#10;&#9;&#9;&#9;329.002,355.448 359.649,386.095 424.957,320.788 &#9;&#9;"/>
	</g>
</g>
<g>
</g>
<g>
</g>
<g>
</g>
<g>
</g>
<g>
</g>
<g>
</g>
<g>
</g>
<g>
</g>
<g>
</g>
<g>
</g>
<g>
</g>
<g>
</g>
<g>
</g>
<g>
</g>
<g>
</g>
</svg>