<svg version="1.1" id="Capa_1" xmlns="http://www.w3.org/2000/svg" xmlns:xlink="http://www.w3.org/1999/xlink" x="0px" y="0px" viewBox="0 0 510 510" style="enable-background:new 0 0 510 510;" xml:space="preserve">
<g>
	<g>
		<rect x="10" y="10" style="fill:#67CCD1;" width="359.289" height="293.939"/>
		<path style="fill:#27A2CC;" d="M369.289,303.939V194.251c-71.59,2.999-132.67,47.323-159.958,109.688H369.289z"/>
		<rect x="10" y="303.939" style="fill:#FFFFFF;" width="359.289" height="154.956"/>
		<path style="fill:#D2DCFD;" d="M194.075,377.038c0,29.409,6.985,57.213,19.367,81.858h155.846V303.939H209.33&#10;&#9;&#9;&#9;C199.528,326.341,194.075,351.063,194.075,377.038z"/>
		<path style="fill:#FDCB50;" d="M234.441,232.6H144.21c-35.226,0-63.782,28.556-63.782,63.782v7.382h216.499v-20.237&#10;&#9;&#9;&#9;C290.98,254.463,265.264,232.6,234.441,232.6z"/>
		<path style="fill:#FD8F01;" d="M209.407,303.764h87.52v-20.237c-4.276-20.896-18.77-38.069-38.034-46.072&#10;&#9;&#9;&#9;C237.735,255.392,220.696,278.038,209.407,303.764z"/>
		<path style="fill:#DD8F7A;" d="M192.323,232.6h-5.995c-35.858,0-64.927-29.069-64.927-64.927v-42.667&#10;&#9;&#9;&#9;c0-30.201,24.483-54.683,54.684-54.683h26.483c30.201,0,54.683,24.483,54.683,54.683v42.667&#10;&#9;&#9;&#9;C257.251,203.531,228.182,232.6,192.323,232.6z"/>
		<path style="fill:#6864F7;" d="M202.567,70.321h-26.483c-30.201,0-54.684,24.483-54.684,54.683v1.308c0,0,55.62,25.148,135.85,0&#10;&#9;&#9;&#9;v-1.308C257.251,94.804,232.768,70.321,202.567,70.321z"/>
		<circle style="fill:#B1D952;" cx="377.038" cy="377.038" r="122.962"/>
		<g>
			<path style="fill:#DB4B86;" d="M436.614,361.174c0-17.017-13.81-30.813-30.845-30.813c-13.109,0-24.306,8.169-28.772,19.689&#10;&#9;&#9;&#9;&#9;c-4.466-11.52-15.663-19.689-28.772-19.689c-17.882-0.048-30.758,15.198-30.758,33.14h-0.005&#10;&#9;&#9;&#9;&#9;c0,43.959,59.556,74.445,59.556,74.445C377.555,437.867,436.614,408.514,436.614,361.174z"/>
		</g>
	</g>
	<g>
		
			<line style="fill:none;stroke:#052A75;stroke-width:20;stroke-linecap:round;stroke-linejoin:round;stroke-miterlimit:10;" x1="85.212" y1="381.202" x2="254.076" y2="381.202"/>
		<path style="fill:none;stroke:#052A75;stroke-width:20;stroke-linecap:round;stroke-linejoin:round;stroke-miterlimit:10;" d="&#10;&#9;&#9;&#9;M121.401,126.313c0,0,55.62,25.148,135.85,0"/>
		<g>
			<g>
				<g>
					<path style="fill:none;stroke:#052A75;stroke-width:20;stroke-linecap:round;stroke-linejoin:round;stroke-miterlimit:10;" d="&#10;&#9;&#9;&#9;&#9;&#9;&#9;M192.323,232.6h-5.995c-35.858,0-64.927-29.069-64.927-64.927v-42.667c0-30.201,24.483-54.683,54.684-54.683h26.483&#10;&#9;&#9;&#9;&#9;&#9;&#9;c30.201,0,54.683,24.483,54.683,54.683v42.667C257.251,203.531,228.182,232.6,192.323,232.6z"/>
					<path style="fill:none;stroke:#052A75;stroke-width:20;stroke-linecap:round;stroke-linejoin:round;stroke-miterlimit:10;" d="&#10;&#9;&#9;&#9;&#9;&#9;&#9;M80.428,303.764v-7.382c0-35.226,28.556-63.782,63.782-63.782h90.231c30.823,0,56.539,21.863,62.486,50.928"/>
				</g>
			</g>
			
				<polyline style="fill:none;stroke:#052A75;stroke-width:20;stroke-linecap:round;stroke-linejoin:round;stroke-miterlimit:10;" points="&#10;&#9;&#9;&#9;&#9;369.289,254.326 369.289,10 10,10 10,458.977 285.364,458.977 &#9;&#9;&#9;"/>
			
				<line style="fill:none;stroke:#052A75;stroke-width:20;stroke-linecap:round;stroke-linejoin:round;stroke-miterlimit:10;" x1="10" y1="303.764" x2="278.288" y2="303.764"/>
		</g>
		<g>
			
				<ellipse transform="matrix(0.7071 -0.7071 0.7071 0.7071 -156.1742 377.0378)" style="fill:none;stroke:#052A75;stroke-width:20;stroke-linecap:round;stroke-linejoin:round;stroke-miterlimit:10;" cx="377.038" cy="377.038" rx="122.962" ry="122.962"/>
		</g>
	</g>
</g>
<g>
</g>
<g>
</g>
<g>
</g>
<g>
</g>
<g>
</g>
<g>
</g>
<g>
</g>
<g>
</g>
<g>
</g>
<g>
</g>
<g>
</g>
<g>
</g>
<g>
</g>
<g>
</g>
<g>
</g>
</svg>