<svg version="1.1" id="Capa_1" xmlns="http://www.w3.org/2000/svg" xmlns:xlink="http://www.w3.org/1999/xlink" x="0px" y="0px" viewBox="0 0 510 510" style="enable-background:new 0 0 510 510;" xml:space="preserve">
<g>
	<g>
		<circle style="fill-rule:evenodd;clip-rule:evenodd;fill:#67CCD1;" cx="410.366" cy="410.366" r="89.634"/>
		<path style="fill-rule:evenodd;clip-rule:evenodd;fill:#B1D952;" d="M435.833,426.328l-50.813-0.087&#10;&#9;&#9;&#9;c-15.561,9.451-28.434,28.072-28.434,47.509v8.152l0.03,0.114C371.609,493.299,390.229,500,410.366,500&#10;&#9;&#9;&#9;c20.15,0,38.782-6.71,53.78-18.007v-8.243C464.146,454.311,451.394,435.779,435.833,426.328z"/>
		<circle style="fill-rule:evenodd;clip-rule:evenodd;fill:#67CCD1;" cx="99.634" cy="99.634" r="89.634"/>
		<path style="fill:#FDCB50;" d="M153.414,163.018c0-19.439-12.732-38.323-28.293-47.774l-50.723,0.681&#10;&#9;&#9;&#9;c-15.561,9.451-28.544,27.656-28.544,47.093v8.056l0.079,0.248c14.985,11.26,33.587,17.946,53.701,17.946&#10;&#9;&#9;&#9;c20.145,0,38.773-6.707,53.769-17.999l0.011-0.025V163.018z"/>
		<path style="fill-rule:evenodd;clip-rule:evenodd;fill:#DD8F7A;" d="M99.634,52.256L99.634,52.256&#10;&#9;&#9;&#9;c-16.903,0-30.732,13.829-30.732,30.732v15.366c0,16.902,13.829,30.732,30.731,30.732h0.001c16.902,0,30.732-13.829,30.732-30.732&#10;&#9;&#9;&#9;V82.988C130.366,66.085,116.537,52.256,99.634,52.256z"/>
		<path style="fill-rule:evenodd;clip-rule:evenodd;fill:#FDBEB9;" d="M410.366,362.988L410.366,362.988&#10;&#9;&#9;&#9;c-16.903,0-30.732,13.829-30.732,30.732v15.366c0,16.902,13.829,30.732,30.732,30.732h0.001c16.902,0,30.732-13.829,30.732-30.732&#10;&#9;&#9;&#9;V393.72C441.098,376.817,427.269,362.988,410.366,362.988z"/>
		<path style="fill-rule:evenodd;clip-rule:evenodd;fill:#FD7DA0;" d="M332.579,287.306C374.342,214.97,297.543,166.9,255,209.443&#10;&#9;&#9;&#9;c-42.543-42.543-119.342,5.527-77.579,77.863c19.221,33.291,57.986,63.813,77.579,69.063&#10;&#9;&#9;&#9;C274.593,351.119,313.359,320.597,332.579,287.306z"/>
	</g>
	<g>
		
			<path style="fill-rule:evenodd;clip-rule:evenodd;fill:none;stroke:#B1D952;stroke-width:20;stroke-linecap:round;stroke-linejoin:round;stroke-miterlimit:10;" d="&#10;&#9;&#9;&#9;M335.16,458.876c-24.464,9.111-54.054,15.23-80.16,15.23c-121.008,0-219.105-98.096-219.105-219.105&#10;&#9;&#9;&#9;c0-26.11,6.07-55.545,15.183-80.012"/>
		
			<path style="fill-rule:evenodd;clip-rule:evenodd;fill:none;stroke:#B1D952;stroke-width:20;stroke-linecap:round;stroke-linejoin:round;stroke-miterlimit:10;" d="&#10;&#9;&#9;&#9;M174.993,51.073c24.464-9.11,53.901-15.178,80.007-15.178c121.008,0,219.105,98.096,219.105,219.105&#10;&#9;&#9;&#9;c0,26.11-6.221,55.594-15.334,80.061"/>
		
			<path style="fill-rule:evenodd;clip-rule:evenodd;fill:none;stroke:#052A75;stroke-width:20;stroke-linecap:round;stroke-linejoin:round;stroke-miterlimit:10;" d="&#10;&#9;&#9;&#9;M99.634,52.256L99.634,52.256c-16.903,0-30.732,13.829-30.732,30.732v15.366c0,16.902,13.829,30.732,30.731,30.732h0.001&#10;&#9;&#9;&#9;c16.902,0,30.732-13.829,30.732-30.732V82.988C130.366,66.085,116.537,52.256,99.634,52.256z"/>
		
			<path style="fill-rule:evenodd;clip-rule:evenodd;fill:none;stroke:#052A75;stroke-width:20;stroke-linecap:round;stroke-linejoin:round;stroke-miterlimit:10;" d="&#10;&#9;&#9;&#9;M410.366,362.988L410.366,362.988c-16.903,0-30.732,13.829-30.732,30.732v15.366c0,16.902,13.829,30.732,30.732,30.732h0.001&#10;&#9;&#9;&#9;c16.902,0,30.732-13.829,30.732-30.732V393.72C441.098,376.817,427.269,362.988,410.366,362.988z"/>
		
			<line style="fill-rule:evenodd;clip-rule:evenodd;fill:none;stroke:#052A75;stroke-width:20;stroke-linecap:round;stroke-linejoin:round;stroke-miterlimit:10;" x1="324.781" y1="204.776" x2="369.472" y2="160.446"/>
		
			<polyline style="fill-rule:evenodd;clip-rule:evenodd;fill:none;stroke:#052A75;stroke-width:20;stroke-linecap:round;stroke-linejoin:round;stroke-miterlimit:10;" points="&#10;&#9;&#9;&#9;339.654,160.387 369.532,160.387 369.532,190.265 &#9;&#9;"/>
		
			<path style="fill-rule:evenodd;clip-rule:evenodd;fill:none;stroke:#052A75;stroke-width:20;stroke-linecap:round;stroke-linejoin:round;stroke-miterlimit:10;" d="&#10;&#9;&#9;&#9;M332.579,287.306C374.342,214.97,297.543,166.9,255,209.443c-42.543-42.543-119.342,5.527-77.579,77.863&#10;&#9;&#9;&#9;c19.221,33.291,57.986,63.813,77.579,69.063C274.593,351.119,313.359,320.597,332.579,287.306z"/>
		
			<path style="fill-rule:evenodd;clip-rule:evenodd;fill:none;stroke:#052A75;stroke-width:20;stroke-linecap:round;stroke-linejoin:round;stroke-miterlimit:10;" d="&#10;&#9;&#9;&#9;M74.398,115.925c-15.561,9.451-28.544,27.656-28.544,47.093v8.056 M153.414,171.244v-8.226c0-19.439-12.732-38.323-28.293-47.774"/>
		
			<circle style="fill-rule:evenodd;clip-rule:evenodd;fill:none;stroke:#052A75;stroke-width:20;stroke-linecap:round;stroke-linejoin:round;stroke-miterlimit:10;" cx="99.634" cy="99.634" r="89.634"/>
		
			<path style="fill-rule:evenodd;clip-rule:evenodd;fill:none;stroke:#052A75;stroke-width:20;stroke-linecap:round;stroke-linejoin:round;stroke-miterlimit:10;" d="&#10;&#9;&#9;&#9;M385.02,426.241c-15.561,9.451-28.435,28.072-28.435,47.509v8.152 M464.146,482.161v-8.411c0-19.439-12.752-37.971-28.313-47.422"/>
		
			<circle style="fill-rule:evenodd;clip-rule:evenodd;fill:none;stroke:#052A75;stroke-width:20;stroke-linecap:round;stroke-linejoin:round;stroke-miterlimit:10;" cx="410.366" cy="410.366" r="89.634"/>
		
			<polyline style="fill-rule:evenodd;clip-rule:evenodd;fill:none;stroke:#052A75;stroke-width:20;stroke-linecap:round;stroke-linejoin:round;stroke-miterlimit:10;" points="&#10;&#9;&#9;&#9;155.407,344.634 185.285,344.634 185.285,374.512 &#9;&#9;"/>
		
			<line style="fill-rule:evenodd;clip-rule:evenodd;fill:none;stroke:#052A75;stroke-width:20;stroke-linecap:round;stroke-linejoin:round;stroke-miterlimit:10;" x1="185.285" y1="344.634" x2="255" y2="274.919"/>
		
			<path style="fill-rule:evenodd;clip-rule:evenodd;fill:none;stroke:#052A75;stroke-width:20;stroke-linecap:round;stroke-linejoin:round;stroke-miterlimit:10;" d="&#10;&#9;&#9;&#9;M385.02,426.241c-15.561,9.451-28.435,28.072-28.435,47.509v8.152 M464.146,482.161v-8.411c0-19.439-12.752-37.971-28.313-47.422"/>
	</g>
</g>
<g>
</g>
<g>
</g>
<g>
</g>
<g>
</g>
<g>
</g>
<g>
</g>
<g>
</g>
<g>
</g>
<g>
</g>
<g>
</g>
<g>
</g>
<g>
</g>
<g>
</g>
<g>
</g>
<g>
</g>
</svg>