<svg version="1.1" id="Capa_1" xmlns="http://www.w3.org/2000/svg" xmlns:xlink="http://www.w3.org/1999/xlink" x="0px" y="0px" viewBox="0 0 502 502" style="enable-background:new 0 0 502 502;" xml:space="preserve">
<g>
	<g>
		<path style="fill:#B1D952;" d="M304.48,252.627c0.189-34.414-27.656-62.412-62.07-62.412H71.589&#10;&#9;&#9;&#9;C37.575,190.215,10,218.063,10,252.416v213.085l60.583-39.93h171.699c34.015,0,61.589-27.849,61.589-62.202L304.48,252.627z"/>
		<path style="fill:#91B706;" d="M242.41,190.215H71.589c-4.652,0-9.178,0.538-13.535,1.525v70.988&#10;&#9;&#9;&#9;c0,72.381,58.527,131.267,130.467,131.267h107.361c5.077-9.043,7.989-19.488,7.989-30.625l0.609-110.742&#10;&#9;&#9;&#9;C304.669,218.213,276.824,190.215,242.41,190.215z"/>
		<path style="fill:#FDCB50;" d="M188.521,36.499h223.012c44.441,0,80.467,36.385,80.467,81.267v278.398l-84.478-52.169H188.521&#10;&#9;&#9;&#9;c-44.441,0-80.467-36.385-80.467-81.268V117.766C108.054,72.883,144.08,36.499,188.521,36.499z"/>
		<path style="fill:#FD8F01;" d="M178.269,112.657c0-26.589,4.247-52.182,12.071-76.159h-1.819&#10;&#9;&#9;&#9;c-44.441,0-80.467,36.385-80.467,81.267v144.961c0,44.883,36.026,81.268,80.467,81.268h153.305&#10;&#9;&#9;&#9;C246.543,310.322,178.269,219.47,178.269,112.657z"/>
	</g>
	<g>
		<g>
			<path style="fill:none;stroke:#052A75;stroke-width:20;stroke-linecap:round;stroke-linejoin:round;stroke-miterlimit:10;" d="&#10;&#9;&#9;&#9;&#9;M108.054,190.215H71.589C37.575,190.215,10,218.063,10,252.416v213.085l60.583-39.93h171.699&#10;&#9;&#9;&#9;&#9;c34.015,0,61.589-27.849,61.589-62.202v-17.798"/>
		</g>
		<g>
			<path style="fill:none;stroke:#052A75;stroke-width:20;stroke-linecap:round;stroke-linejoin:round;stroke-miterlimit:10;" d="&#10;&#9;&#9;&#9;&#9;M188.521,36.499h223.012c44.441,0,80.467,36.385,80.467,81.267v278.398l-84.478-52.169H188.521&#10;&#9;&#9;&#9;&#9;c-44.441,0-80.467-36.385-80.467-81.268V117.766C108.054,72.883,144.08,36.499,188.521,36.499z"/>
			<g>
				<path style="fill:none;stroke:#FFFFFF;stroke-width:20;stroke-linecap:round;stroke-linejoin:round;stroke-miterlimit:10;" d="&#10;&#9;&#9;&#9;&#9;&#9;M198.847,117.45L198.847,117.45c12.975,0,23.922,9.754,25.539,22.756l4.009,32.232c2.58,20.743,20.044,36.304,40.744,36.304&#10;&#9;&#9;&#9;&#9;&#9;h61.774c20.7,0,38.164-15.561,40.745-36.304l4.009-32.232c1.617-13.002,12.564-22.756,25.539-22.756l0,0"/>
				
					<line style="fill:none;stroke:#FFFFFF;stroke-width:20;stroke-linecap:round;stroke-linejoin:round;stroke-miterlimit:10;" x1="300.027" y1="119.867" x2="300.027" y2="276.667"/>
			</g>
		</g>
	</g>
</g>
<g>
</g>
<g>
</g>
<g>
</g>
<g>
</g>
<g>
</g>
<g>
</g>
<g>
</g>
<g>
</g>
<g>
</g>
<g>
</g>
<g>
</g>
<g>
</g>
<g>
</g>
<g>
</g>
<g>
</g>
</svg>